<svg viewBox="0 0 552 128" fill="none" xmlns="http://www.w3.org/2000/svg">
<g clip-path="url(#clip0_201_2)">
<path d="M32 0C14.3264 0 0 14.3264 0 32V96C0 113.674 14.3264 128 32 128H32C49.6736 128 64 113.674 64 96V32C64 14.3264 49.6736 0 32 0H32Z" fill="url(#paint0_linear_201_2)"/>
<path d="M103.818 31.872C103.818 29.136 104.418 26.784 105.618 24.816C106.818 22.848 108.554 21.36 110.826 20.352C113.13 19.312 115.818 18.8 118.89 18.8C123.498 18.8 127.154 19.84 130.098 21.952C133.074 24.032 135.098 27.04 136.17 30.976L117.33 37.888C117.138 36.48 116.634 35.456 115.818 34.816C115.034 34.144 114.058 33.8 112.89 33.8C111.434 33.8 110.362 34.336 109.674 35.408C109.018 36.48 108.69 38.032 108.69 40.064V46.848H137.01V59.424H108.69V89.6H90.666V20.8H118.338C115.562 20.016 113.13 19.616 111.042 19.6C108.066 19.6 105.618 20.416 103.698 22.048C101.81 23.68 100.514 25.936 99.81 28.816H90.666V110H137.01V98.208H108.69V69.696H139.47V40.064C139.47 36.48 138.738 33.536 137.262 31.232C135.818 28.896 133.782 27.136 131.154 25.952C128.558 24.736 125.478 24.128 121.914 24.128C117.522 24.128 113.866 25.056 110.922 26.912C107.978 28.736 105.818 31.2 104.418 34.288L103.818 31.872Z" fill="white"/>
<path d="M230.294 18.8C235.35 18.8 239.55 19.648 242.894 21.344C246.238 23.04 248.79 25.456 250.55 28.6C252.342 31.744 253.238 35.44 253.238 39.688V40.208C253.238 44.528 252.374 48.256 250.646 51.4C248.918 54.544 246.438 56.992 243.206 58.744C239.974 60.496 235.982 61.36 231.23 61.36H201.398V110H183.374V18.8H230.294ZM219.414 50.08H226.55C228.998 50.08 231.022 49.6 232.622 48.64C234.254 47.68 235.494 46.272 236.342 44.416C237.19 42.528 237.614 40.48 237.614 38.272C237.614 33.632 236.174 30.4 233.294 28.576C230.414 26.72 226.454 25.792 221.414 25.792H201.398V50.08H219.414Z" fill="white"/>
<path d="M335.666 18.8L361.106 91.296L362.178 91.264L387.618 18.8H407.378L370.034 110H353.234L315.89 18.8H335.666Z" fill="white"/>
<path d="M418.146 18.8H436.17L468.066 78.016V18.8H484.002V110H467.37L434.146 47.584V110H418.146V18.8Z" fill="white"/>
<path d="M551.154 18.8V110H533.13V69.184L512.562 89.6H496.37L523.282 62.848L494.77 18.8H513.61L533.13 42.88L551.154 18.8Z" fill="white"/>
</g>
<defs>
<linearGradient id="paint0_linear_201_2" x1="32" y1="0" x2="32" y2="128" gradientUnits="userSpaceOnUse">
<stop stop-color="#FF6B35"/>
<stop offset="1" stop-color="#FF4500"/>
</linearGradient>
<clipPath id="clip0_201_2">
<rect width="552" height="128" fill="white"/>
</clipPath>
</defs>
</svg>